<svg width="162" height="138" viewBox="0 0 162 138" fill="none" xmlns="http://www.w3.org/2000/svg">
<g id="Documents-amico 1" clip-path="url(#clip0_916_8032)">
<g id="freepik--filing-cabinets--inject-12">
<path id="Vector" d="M11.4482 99.3276L0.0761719 92.7636V68.3716L11.4482 74.9396V99.3276Z" fill="#7C8A8F"/>
<path id="Vector_2" d="M11.4482 74.9396L27.6962 65.5596V89.9476L11.4482 99.3276V74.9396Z" fill="#7C8A8F"/>
<path id="Vector_3" d="M27.6962 65.5597L11.4482 74.9397L0.0761719 68.3717L16.3242 58.9917L27.6962 65.5597Z" fill="#50636A"/>
<path id="Vector_4" d="M13.0763 75.8756L26.0723 68.3716L26.3723 68.5436V77.5796L13.3723 85.0836L13.0723 84.9116L13.0763 75.8756Z" fill="#A7B1B5"/>
<path id="Vector_5" d="M13.3721 76.0519L26.3721 68.5439V77.58L13.3721 85.0839V76.0519Z" fill="#50636A"/>
<path id="Vector_6" d="M18.4682 74.6398L20.6802 73.3638C20.9642 73.1958 21.1962 73.2718 21.1962 73.5318C21.1756 73.691 21.1183 73.8433 21.0287 73.9766C20.9392 74.1099 20.8199 74.2205 20.6802 74.2998L18.4682 75.5758C18.1802 75.7438 17.9482 75.6678 17.9482 75.4078C17.969 75.2481 18.0268 75.0954 18.1171 74.9621C18.2074 74.8287 18.3276 74.7183 18.4682 74.6398Z" fill="#7C8A8F"/>
<path id="Vector_7" d="M12.7761 87.3077L25.7721 79.8037V88.8397L26.0721 89.0117L13.0721 96.5157L12.7761 96.3437V87.3077Z" fill="#A7B1B5"/>
<path id="Vector_8" d="M13.0723 87.4796L26.0723 79.9756V89.0116L13.0723 96.5156V87.4796Z" fill="#50636A"/>
<path id="Vector_9" d="M18.1682 86.0718L20.4002 84.7998C20.6882 84.6318 20.9202 84.7078 20.9202 84.9678C20.8995 85.1275 20.8416 85.2802 20.7514 85.4135C20.6611 85.5469 20.5408 85.6573 20.4002 85.7358L18.1882 87.0118C17.9002 87.1798 17.6682 87.1038 17.6682 86.8438C17.6862 86.6852 17.7407 86.533 17.8275 86.399C17.9142 86.2651 18.0309 86.1531 18.1682 86.0718Z" fill="#7C8A8F"/>
<path id="Vector_10" d="M11.4482 73.5317L0.0761719 66.9637V42.5757L11.4482 49.1397V73.5317Z" fill="#7C8A8F"/>
<path id="Vector_11" d="M11.4482 49.1398L27.6962 39.7598V64.1518L11.4482 73.5318V49.1398Z" fill="#7C8A8F"/>
<path id="Vector_12" d="M27.6962 39.7598L11.4482 49.1398L0.0761719 42.5758L16.3242 33.1958L27.6962 39.7598Z" fill="#50636A"/>
<path id="Vector_13" d="M13.0723 50.0797L26.0723 42.5757L26.3723 42.7477V51.7837L13.3723 59.2877L13.0723 59.1117V50.0797Z" fill="#50636A"/>
<path id="Vector_14" d="M18.4682 48.84L20.6762 47.564C20.9642 47.4 21.1962 47.476 21.1962 47.736C21.1749 47.8955 21.1168 48.0479 21.0266 48.1811C20.9364 48.3144 20.8164 48.4249 20.6762 48.504L18.4682 49.78C18.1802 49.944 17.9482 49.872 17.9482 49.612C17.9693 49.4518 18.0272 49.2988 18.1174 49.1648C18.2077 49.0309 18.3278 48.9197 18.4682 48.84Z" fill="#E0E0E0"/>
<path id="Vector_15" d="M12.7761 61.5118L25.7721 54.0078V63.0398L26.0721 63.2118L13.0721 70.7158L12.7761 70.5438V61.5118Z" fill="#A7B1B5"/>
<path id="Vector_16" d="M13.0723 61.6837L26.0723 54.1797V63.2117L13.0723 70.7157V61.6837Z" fill="#50636A"/>
<path id="Vector_17" d="M18.1684 60.2716L20.4004 58.9956C20.6844 58.8316 20.9204 58.9076 20.9204 59.1676C20.8979 59.3268 20.8394 59.4787 20.7493 59.6118C20.6592 59.7448 20.5398 59.8556 20.4004 59.9356L18.1684 61.1996C17.8804 61.3636 17.6484 61.2876 17.6484 61.0316C17.6712 60.8736 17.73 60.7229 17.8201 60.5912C17.9103 60.4594 18.0294 60.3501 18.1684 60.2716Z" fill="#E0E0E0"/>
<path id="Vector_18" d="M13.0723 50.0797L26.0723 42.5757V51.6077L13.0723 59.1117V50.0797Z" fill="#A7B1B5"/>
<path id="Vector_19" d="M32.5721 47.0396L25.4561 42.9316V50.8916L32.5721 54.9956V47.0396Z" fill="#A7B1B5"/>
<path id="Vector_20" d="M17.9482 60.3997V49.1397L20.7362 47.5237L21.1962 48.2037L29.3202 43.5117V53.8317L17.9482 60.3997Z" fill="#7C8A8F"/>
<path id="Vector_21" d="M17.9482 60.3999L18.7602 50.5479L30.1322 43.9839L29.3202 53.8319L17.9482 60.3999Z" fill="#50636A"/>
<path id="Vector_22" d="M19.5721 54.5439L13.3721 50.9639V58.9239L19.5721 62.4999V54.5439Z" fill="#7C8A8F"/>
<path id="Vector_23" d="M19.5723 53.8316L32.5723 46.3276V55.3596L19.5723 62.8636V53.8316Z" fill="#50636A"/>
<path id="Vector_24" d="M24.6684 52.4196L26.8764 51.1436C27.1644 50.9796 27.3964 51.0556 27.3964 51.3156C27.3748 51.475 27.3166 51.6272 27.2264 51.7605C27.1362 51.8937 27.0164 52.0043 26.8764 52.0836L24.6684 53.3596C24.3804 53.5236 24.1484 53.4476 24.1484 53.1916C24.1695 53.0314 24.2274 52.8784 24.3176 52.7444C24.4079 52.6104 24.528 52.4992 24.6684 52.4196Z" fill="#7C8A8F"/>
<path id="Vector_25" d="M19.5726 53.832L19.1406 53.584V62.616L19.5726 62.864V53.832Z" fill="#A7B1B5"/>
<path id="Vector_26" d="M19.1406 53.5837L32.1366 46.0757L32.5726 46.3277L19.5726 53.8317L19.1406 53.5837Z" fill="#A7B1B5"/>
<path id="Vector_27" d="M145.8 84.5517L134.424 77.9837V53.5957L145.8 60.1597V84.5517Z" fill="#7C8A8F"/>
<path id="Vector_28" d="M145.8 60.1598L162.048 50.7798V75.1718L145.8 84.5518V60.1598Z" fill="#7C8A8F"/>
<path id="Vector_29" d="M162.048 50.7799L145.8 60.1599L134.424 53.5959L150.676 44.2119L162.048 50.7799Z" fill="#50636A"/>
<path id="Vector_30" d="M147.424 61.0997L160.424 53.5957L160.724 53.7677L160.72 62.7997L147.724 70.3037L147.424 70.1317V61.0997Z" fill="#A7B1B5"/>
<path id="Vector_31" d="M147.725 61.2716L160.725 53.7676L160.721 62.7996L147.725 70.3036V61.2716Z" fill="#50636A"/>
<path id="Vector_32" d="M152.82 59.8597L155.028 58.5837C155.316 58.4197 155.548 58.4957 155.548 58.7517C155.527 58.9118 155.469 59.0649 155.379 59.1988C155.288 59.3328 155.168 59.444 155.028 59.5237L152.82 60.7997C152.532 60.9637 152.3 60.8877 152.3 60.6317C152.321 60.4715 152.379 60.3185 152.469 60.1845C152.559 60.0506 152.679 59.9394 152.82 59.8597Z" fill="#7C8A8F"/>
<path id="Vector_33" d="M147.124 72.5319L160.124 65.0239V74.0599L160.424 74.2319L147.424 81.7359L147.124 81.5639V72.5319Z" fill="#A7B1B5"/>
<path id="Vector_34" d="M147.424 72.7037L160.424 65.1997V74.2317L147.424 81.7357V72.7037Z" fill="#50636A"/>
<path id="Vector_35" d="M152.52 71.2918L154.732 70.0158C155.016 69.8518 155.248 69.9278 155.248 70.1838C155.227 70.3434 155.169 70.496 155.08 70.6298C154.991 70.7637 154.872 70.8752 154.732 70.9558L152.52 72.2318C152.232 72.3958 152 72.3198 152 72.0598C152.022 71.9004 152.08 71.7481 152.17 71.6149C152.26 71.4817 152.38 71.3711 152.52 71.2918Z" fill="#7C8A8F"/>
</g>
<g id="freepik--Plants--inject-12">
<path id="Vector_36" d="M37.6 110.044C37.6 110.044 37.644 103.7 33.644 98.9441C30.104 94.7321 28.22 92.0602 29.336 90.8282C30.452 89.5962 32.852 89.3001 36.088 92.7081C39.324 96.1161 39.576 105.556 39.128 107.692L37.6 110.044Z" fill="#008080"/>
<path id="Vector_37" opacity="0.2" d="M37.6 110.044C37.6 110.044 37.644 103.7 33.644 98.9441C30.104 94.7321 28.22 92.0602 29.336 90.8282C30.452 89.5962 32.852 89.3001 36.088 92.7081C39.324 96.1161 39.576 105.556 39.128 107.692L37.6 110.044Z" fill="black"/>
<path id="Vector_38" d="M38.2718 103.224C38.2262 103.224 38.182 103.209 38.1463 103.181C38.1107 103.152 38.0858 103.113 38.0758 103.068C36.6758 96.5201 33.0838 92.9001 31.0638 91.3241C31.022 91.2917 30.9947 91.244 30.988 91.1915C30.9812 91.1391 30.9955 91.086 31.0278 91.0441C31.0609 91.002 31.1093 90.9747 31.1624 90.9679C31.2156 90.9612 31.2692 90.9756 31.3118 91.0081C33.3718 92.6081 37.0398 96.3121 38.4678 102.984C38.4737 103.01 38.4744 103.036 38.4699 103.062C38.4653 103.088 38.4557 103.112 38.4416 103.134C38.4274 103.156 38.409 103.175 38.3874 103.19C38.3658 103.205 38.3414 103.215 38.3158 103.22L38.2718 103.224Z" fill="white"/>
<path id="Vector_39" d="M37.4481 112.4L35.8201 113.34C35.6464 112.866 35.3536 112.444 34.9697 112.115C34.5858 111.787 34.1238 111.562 33.6281 111.464C31.8481 111.064 30.0001 111.132 28.7521 109.588C27.5041 108.044 29.0241 106.364 28.7521 105.228C28.4801 104.092 28.3041 103.764 26.0721 102.628C23.8401 101.492 22.9601 99.6081 24.6401 98.3321C26.3201 97.0561 29.0401 97.9921 30.6881 99.1321C32.1521 100.132 33.5441 100.396 35.1801 100.6C36.8161 100.804 39.4801 101.712 39.0721 105.512C38.8049 107.864 38.2598 110.176 37.4481 112.4Z" fill="#008080"/>
<path id="Vector_40" d="M31.2005 107.408C31.1578 107.408 31.1164 107.394 31.082 107.369C31.0475 107.344 31.0218 107.309 31.0085 107.268C30.9933 107.217 30.9986 107.162 31.0233 107.115C31.0479 107.068 31.09 107.033 31.1405 107.016C31.2845 106.972 34.7405 105.876 36.2085 107.052C36.2449 107.087 36.2671 107.133 36.2707 107.183C36.2742 107.233 36.2589 107.283 36.2277 107.322C36.1966 107.361 36.1518 107.387 36.1023 107.395C36.0528 107.403 36.0022 107.392 35.9605 107.364C34.6645 106.324 31.2965 107.388 31.2605 107.4L31.2005 107.408Z" fill="white"/>
<path id="Vector_41" d="M37.6278 112.096C37.5791 112.096 37.5321 112.078 37.4958 112.046C37.4596 112.013 37.4368 111.968 37.4318 111.92C36.5398 103.496 26.3918 99.5001 26.2918 99.4601C26.267 99.4507 26.2443 99.4366 26.225 99.4185C26.2057 99.4003 26.1903 99.3785 26.1795 99.3543C26.1687 99.3301 26.1628 99.304 26.1622 99.2776C26.1615 99.2511 26.1662 99.2247 26.1758 99.2001C26.1955 99.1516 26.233 99.1125 26.2807 99.0909C26.3283 99.0694 26.3824 99.0669 26.4318 99.0841C26.5398 99.1281 36.9118 103.208 37.8278 111.884C37.8334 111.937 37.8181 111.989 37.7851 112.03C37.7522 112.072 37.7042 112.098 37.6518 112.104L37.6278 112.096Z" fill="white"/>
<path id="Vector_42" d="M137.12 106.868C137.164 106.728 138.88 97.8961 137.12 91.6321C135.52 85.8881 133.432 83.7681 130.456 83.3001C127.48 82.8321 126.188 84.9761 127.768 87.8801C129.348 90.7841 133.152 94.6361 134.084 101.124C134.484 103.796 134.788 106.116 134.788 106.116L137.12 106.868Z" fill="#008080"/>
<path id="Vector_43" opacity="0.2" d="M137.12 106.868C137.164 106.728 138.88 97.8961 137.12 91.6321C135.52 85.8881 133.432 83.7681 130.456 83.3001C127.48 82.8321 126.188 84.9761 127.768 87.8801C129.348 90.7841 133.152 94.6361 134.084 101.124C134.484 103.796 134.788 106.116 134.788 106.116L137.12 106.868Z" fill="black"/>
<path id="Vector_44" d="M136.116 101.796C136.089 101.795 136.064 101.788 136.04 101.776C136.016 101.765 135.995 101.749 135.978 101.729C135.96 101.709 135.947 101.686 135.938 101.662C135.93 101.637 135.926 101.61 135.928 101.584C136.328 94.4321 133.992 88.0481 129.804 84.9161C129.761 84.8843 129.733 84.8369 129.726 84.7844C129.718 84.7319 129.732 84.6785 129.764 84.6361C129.796 84.5945 129.843 84.5671 129.896 84.5597C129.948 84.5522 130.001 84.5653 130.044 84.5961C134.336 87.7961 136.744 94.3241 136.324 101.608C136.321 101.66 136.297 101.709 136.258 101.745C136.219 101.78 136.168 101.798 136.116 101.796Z" fill="white"/>
<path id="Vector_45" d="M141.724 111.468C141.496 109.824 142.44 107.36 144.684 106.776C146.928 106.192 147.928 104.904 147.12 103.496C146.312 102.088 146.5 100.796 148.536 100.212C150.572 99.628 152.356 98.612 151.184 96.46C150.332 94.904 150.144 93.896 152.232 90.832C153.964 88.288 152.548 86.796 150.38 87.076C148.212 87.356 146.872 89.94 145.516 90.372C144.16 90.804 143.848 88.5 142.06 89.532C140.272 90.564 140.38 93.208 140.324 95.052C140.268 96.896 140.148 97.312 138.532 97.088C136.916 96.864 135.332 97.128 135.368 101.036C135.396 104.388 137.184 108.54 137.184 108.54L141.724 111.468Z" fill="#008080"/>
<path id="Vector_46" d="M138.888 108.968H138.868C138.814 108.962 138.765 108.935 138.731 108.893C138.698 108.851 138.682 108.798 138.688 108.744C139.816 98.668 148.464 90.168 150.72 88.444C150.762 88.4117 150.816 88.3975 150.869 88.4046C150.921 88.4118 150.969 88.4396 151.002 88.482C151.034 88.5245 151.048 88.578 151.041 88.6309C151.034 88.6838 151.006 88.7317 150.964 88.764C148.736 90.464 140.2 98.852 139.088 108.788C139.082 108.837 139.058 108.883 139.022 108.916C138.985 108.949 138.937 108.967 138.888 108.968Z" fill="white"/>
<path id="Vector_47" d="M142.832 98.196C142.791 98.1958 142.752 98.1835 142.718 98.1607C142.685 98.1379 142.659 98.1056 142.644 98.0681C142.627 98.0176 142.63 97.9625 142.652 97.9141C142.674 97.8657 142.714 97.8278 142.764 97.808C145.988 96.608 149.644 97.176 149.8 97.2C149.852 97.2089 149.898 97.2378 149.929 97.2804C149.959 97.3231 149.972 97.3761 149.964 97.4281C149.954 97.4797 149.925 97.5257 149.883 97.5568C149.841 97.588 149.788 97.602 149.736 97.596C149.7 97.596 146.028 97.02 142.904 98.184C142.881 98.1919 142.856 98.1959 142.832 98.196Z" fill="white"/>
<path id="Vector_48" d="M139.96 104.252C139.932 104.252 139.904 104.246 139.879 104.234C139.853 104.222 139.831 104.205 139.812 104.184C138.471 102.623 137.563 100.738 137.176 98.7161C137.172 98.6901 137.173 98.6636 137.18 98.6381C137.186 98.6125 137.197 98.5885 137.213 98.5673C137.228 98.5461 137.248 98.5282 137.271 98.5146C137.293 98.501 137.318 98.492 137.344 98.4881C137.37 98.4842 137.397 98.4854 137.422 98.4917C137.448 98.4979 137.472 98.5092 137.493 98.5248C137.514 98.5404 137.532 98.5601 137.546 98.5826C137.559 98.6051 137.568 98.6301 137.572 98.6561C137.955 100.598 138.829 102.409 140.112 103.916C140.137 103.946 140.153 103.982 140.159 104.02C140.164 104.058 140.158 104.097 140.142 104.132C140.127 104.167 140.101 104.197 140.069 104.219C140.036 104.24 139.999 104.251 139.96 104.252Z" fill="white"/>
</g>
<g id="freepik--folder-2--inject-12">
<path id="Vector_49" d="M37.4482 50.4921V112.404L100.816 75.8201L100.812 19.5361L53.6962 46.7401L52.0682 42.0481L37.4482 50.4921Z" fill="#008080"/>
<path id="Vector_50" opacity="0.7" d="M37.4482 50.4921V112.404L100.816 75.8201L100.812 19.5361L53.6962 46.7401L52.0682 42.0481L37.4482 50.4921Z" fill="black"/>
<path id="Vector_51" d="M37.4482 112.404L40.6962 56.1201L104.064 19.5361L100.816 75.8201L37.4482 112.404Z" fill="#E0E0E0"/>
<path id="Vector_52" d="M37.4482 112.404L42.3202 57.0602L105.688 20.4722L100.816 75.8202L37.4482 112.404Z" fill="#008080"/>
<path id="Vector_53" opacity="0.7" d="M37.4482 112.404L42.3202 57.0602L105.688 20.4722L100.816 75.8202L37.4482 112.404Z" fill="black"/>
</g>
<g id="freepik--folder-1--inject-12">
<path id="Vector_54" d="M47.1963 56.1201V118.036L110.564 81.4481V25.1641L63.4443 52.3681L61.8203 47.6761L47.1963 56.1201Z" fill="#008080"/>
<path id="Vector_55" opacity="0.5" d="M47.1963 56.1201V118.036L110.564 81.4481V25.1641L63.4443 52.3681L61.8203 47.6761L47.1963 56.1201Z" fill="black"/>
<path id="Vector_56" d="M47.1963 118.036L50.4443 61.7481L113.812 25.1641L110.564 81.4481L47.1963 118.036Z" fill="#E0E0E0"/>
<path id="Vector_57" d="M47.1963 118.036L52.0683 62.6881L115.436 26.1001L110.564 81.4481L47.1963 118.036Z" fill="#008080"/>
<path id="Vector_58" opacity="0.5" d="M47.1963 118.036L52.0683 62.6881L115.436 26.1001L110.564 81.4481L47.1963 118.036Z" fill="black"/>
</g>
<g id="freepik--Documents--inject-12">
<path id="Vector_59" d="M100.801 137.736C89.4246 131.168 78.8726 124.028 74.0566 115.652L88.6966 107.2L100.801 137.736Z" fill="#7C8A8F"/>
<path id="Vector_60" d="M58.5684 62.6879V124.6L121.936 88.0159V31.7319L74.8164 58.9359L73.1924 54.2439L58.5684 62.6879Z" fill="#008080"/>
<path id="Vector_61" opacity="0.2" d="M58.5684 62.6879V124.6L121.936 88.0159V31.7319L74.8164 58.9359L73.1924 54.2439L58.5684 62.6879Z" fill="black"/>
<path id="Vector_62" d="M76.8246 80.9916C76.6646 80.9916 76.6406 80.8076 76.6406 80.6996V27.8996C76.6535 27.6948 76.7136 27.4957 76.8163 27.3181C76.919 27.1404 77.0615 26.989 77.2326 26.8756L122.969 0.475623C123.031 0.436556 123.103 0.414495 123.177 0.411621C123.337 0.411621 123.361 0.595622 123.361 0.703622V53.5036C123.348 53.7091 123.288 53.9088 123.185 54.0872C123.083 54.2655 122.94 54.4177 122.769 54.5316L77.0326 80.9316C76.9694 80.9688 76.8979 80.9894 76.8246 80.9916Z" fill="#50636A"/>
<path id="Vector_63" d="M123.152 0.59577C123.156 0.625014 123.156 0.654526 123.152 0.683771V53.4838C123.139 53.6541 123.088 53.8193 123.003 53.9674C122.918 54.1154 122.801 54.2427 122.66 54.3398L76.9243 80.7398L76.8443 80.7758C76.839 80.7467 76.839 80.7169 76.8443 80.6878V27.8878C76.8581 27.7182 76.9093 27.5537 76.9944 27.4064C77.0795 27.259 77.1963 27.1324 77.3363 27.0358L123.072 0.635769C123.098 0.618124 123.126 0.605871 123.156 0.599771M123.18 0.199771C123.071 0.203014 122.965 0.234734 122.872 0.291772L77.1363 26.6918C76.9353 26.8238 76.768 27.0012 76.6478 27.2096C76.5276 27.418 76.4579 27.6516 76.4443 27.8918V80.6918C76.4443 81.0038 76.6003 81.1838 76.8443 81.1838C76.9533 81.1809 77.0596 81.1492 77.1523 81.0918L122.888 54.6918C123.09 54.5606 123.258 54.3835 123.379 54.1749C123.499 53.9663 123.568 53.7322 123.58 53.4918V0.691772C123.58 0.379772 123.424 0.195771 123.18 0.199771Z" fill="#008080"/>
<path id="Vector_64" opacity="0.7" d="M123.152 0.59577C123.156 0.625014 123.156 0.654526 123.152 0.683771V53.4838C123.139 53.6541 123.088 53.8193 123.003 53.9674C122.918 54.1154 122.801 54.2427 122.66 54.3398L76.9243 80.7398L76.8443 80.7758C76.839 80.7467 76.839 80.7169 76.8443 80.6878V27.8878C76.8581 27.7182 76.9093 27.5537 76.9944 27.4064C77.0795 27.259 77.1963 27.1324 77.3363 27.0358L123.072 0.635769C123.098 0.618124 123.126 0.605871 123.156 0.599771M123.18 0.199771C123.071 0.203014 122.965 0.234734 122.872 0.291772L77.1363 26.6918C76.9353 26.8238 76.768 27.0012 76.6478 27.2096C76.5276 27.418 76.4579 27.6516 76.4443 27.8918V80.6918C76.4443 81.0038 76.6003 81.1838 76.8443 81.1838C76.9533 81.1809 77.0596 81.1492 77.1523 81.0918L122.888 54.6918C123.09 54.5606 123.258 54.3835 123.379 54.1749C123.499 53.9663 123.568 53.7322 123.58 53.4918V0.691772C123.58 0.379772 123.424 0.195771 123.18 0.199771Z" fill="#7C8A8F"/>
<path id="Vector_65" d="M81.3164 29.9039L97.5644 20.5239V39.2839L81.3164 48.6639V29.9039Z" fill="#008080"/>
<path id="Vector_66" opacity="0.8" d="M81.3164 29.9039L97.5644 20.5239V39.2839L81.3164 48.6639V29.9039Z" fill="#7C8A8F"/>
<path id="Vector_67" d="M95.1287 25.1997V30.8397L94.6167 31.1237V29.3997C94.6167 28.4477 93.8447 28.1237 92.8847 28.6757L86.0007 32.6557C85.0447 33.2077 84.2687 34.4277 84.2687 35.3797V37.1037L83.7607 37.4077V31.7797L95.1287 25.1997Z" fill="white"/>
<path id="Vector_68" d="M91.9999 39.5599C91.1679 40.0399 90.4919 39.5359 90.4919 38.4279V29.3999L88.3999 30.5359V39.6359C88.3999 40.7399 87.7239 42.0359 86.8919 42.5039L85.3799 43.3759V43.9759L93.5039 39.2839V38.6879L91.9999 39.5599Z" fill="white"/>
<path id="Vector_69" d="M100.801 19.5995C100.801 20.1195 101.269 20.2675 101.841 19.9395L117.649 10.7995C117.929 10.6406 118.169 10.4188 118.35 10.1516C118.53 9.88443 118.646 9.5791 118.689 9.25954C118.689 8.74354 118.221 8.59154 117.649 8.92354L101.853 18.0435C101.568 18.2022 101.324 18.4257 101.141 18.696C100.958 18.9663 100.842 19.2758 100.801 19.5995Z" fill="#7C8A8F"/>
<path id="Vector_70" d="M100.801 25.1997C100.801 25.7197 101.269 25.8717 101.841 25.5397L117.637 16.4197C117.917 16.2607 118.157 16.0389 118.338 15.7717C118.518 15.5046 118.634 15.1992 118.677 14.8797C118.677 14.3637 118.209 14.2117 117.637 14.5437L101.841 23.6637C101.561 23.8222 101.321 24.0434 101.141 24.3098C100.96 24.5763 100.844 24.8808 100.801 25.1997Z" fill="#7C8A8F"/>
<path id="Vector_71" d="M100.801 30.8396C100.801 31.3596 101.269 31.5116 101.841 31.1796L117.637 22.0596C117.917 21.901 118.156 21.6799 118.337 21.4134C118.517 21.147 118.634 20.8425 118.677 20.5236C118.677 20.0036 118.209 19.8516 117.637 20.1836L101.841 29.3036C101.561 29.4622 101.321 29.6833 101.141 29.9498C100.96 30.2162 100.844 30.5208 100.801 30.8396Z" fill="#7C8A8F"/>
<path id="Vector_72" d="M100.801 36.4675C100.801 36.9875 101.269 37.1395 101.841 36.8075L117.637 27.6875C117.917 27.529 118.156 27.3078 118.337 27.0414C118.517 26.7749 118.634 26.4704 118.677 26.1515C118.677 25.6315 118.209 25.4795 117.637 25.8115L101.841 34.9315C101.561 35.0901 101.321 35.3113 101.141 35.5777C100.96 35.8442 100.844 36.1487 100.801 36.4675Z" fill="#7C8A8F"/>
<path id="Vector_73" d="M81.3164 53.3556C81.3164 53.8756 81.7804 54.0276 82.3564 53.6956L117.648 33.2956C117.929 33.1375 118.169 32.9165 118.349 32.65C118.53 32.3835 118.646 32.0787 118.688 31.7596C118.688 31.2396 118.22 31.0916 117.648 31.4196L82.3564 51.8196C82.0758 51.9775 81.8358 52.1984 81.6553 52.465C81.4748 52.7316 81.3588 53.0365 81.3164 53.3556Z" fill="#7C8A8F"/>
<path id="Vector_74" d="M81.3164 58.984C81.3164 59.504 81.7804 59.656 82.3564 59.324L117.648 38.948C117.929 38.789 118.169 38.5672 118.349 38.3001C118.53 38.0329 118.646 37.7275 118.688 37.408C118.688 36.892 118.22 36.74 117.648 37.072L82.3564 57.448C82.0758 57.6058 81.8358 57.8268 81.6553 58.0934C81.4748 58.3599 81.3588 58.6648 81.3164 58.984Z" fill="#7C8A8F"/>
<path id="Vector_75" d="M81.3164 64.6159C81.3164 65.1319 81.7804 65.2839 82.3564 64.9519L117.648 44.5759C117.929 44.4169 118.169 44.1952 118.349 43.928C118.53 43.6608 118.646 43.3555 118.688 43.0359C118.688 42.5199 118.22 42.3679 117.648 42.6999L82.3564 63.0759C82.0753 63.2342 81.835 63.4557 81.6545 63.723C81.474 63.9904 81.3582 64.2961 81.3164 64.6159Z" fill="#7C8A8F"/>
<path id="Vector_76" d="M58.5684 124.6L69.9404 74.8839L133.308 38.2959L121.936 88.0159L58.5684 124.6Z" fill="#008080"/>
<path id="Vector_77" d="M74.0723 78.7759V115.652L88.6963 107.208V70.3359L74.0723 78.7759Z" fill="#008080"/>
<path id="Vector_78" opacity="0.2" d="M74.0723 78.7759V115.652L88.6963 107.208V70.3359L74.0723 78.7759Z" fill="black"/>
<path id="Vector_79" d="M100.829 137.496C99.5846 136.568 87.5926 127.404 81.4966 114.296C75.0086 100.36 75.0166 84.1037 75.0166 77.9877V77.7957L118.489 52.6997C118.489 58.8717 118.489 75.1517 125.005 89.1357C130.961 101.936 142.493 110.984 144.321 112.368L100.829 137.496Z" fill="#50636A"/>
<path id="Vector_80" d="M118.288 53.0599C118.288 59.4919 118.412 75.4599 124.824 89.2359C130.58 101.596 141.524 110.484 143.96 112.36L100.84 137.256C99.156 135.988 87.6159 126.976 81.68 114.228C75.2 100.332 75.2 84.1079 75.2 77.9999V77.9239L118.272 53.0559M118.672 52.3639L74.8 77.6959C74.8 83.4519 74.68 100.176 81.3 114.396C87.816 128.352 100.8 137.736 100.8 137.736L144.684 112.4C144.684 112.4 131.684 103.016 125.188 89.0599C118.564 74.8399 118.688 58.1159 118.688 52.3599L118.672 52.3639Z" fill="#008080"/>
<path id="Vector_81" opacity="0.7" d="M118.288 53.0599C118.288 59.4919 118.412 75.4599 124.824 89.2359C130.58 101.596 141.524 110.484 143.96 112.36L100.84 137.256C99.156 135.988 87.6159 126.976 81.68 114.228C75.2 100.332 75.2 84.1079 75.2 77.9999V77.9239L118.272 53.0559M118.672 52.3639L74.8 77.6959C74.8 83.4519 74.68 100.176 81.3 114.396C87.816 128.352 100.8 137.736 100.8 137.736L144.684 112.4C144.684 112.4 131.684 103.016 125.188 89.0599C118.564 74.8399 118.688 58.1159 118.688 52.3599L118.672 52.3639Z" fill="#7C8A8F"/>
<path id="Vector_82" d="M113.725 60.8599L99.8527 68.8599C99.5751 69.0128 99.3384 69.2304 99.1629 69.4944C98.9874 69.7583 98.8782 70.0607 98.8447 70.3759C98.8647 70.8839 99.3487 71.0279 99.9207 70.6959L113.797 62.6959C114.071 62.5445 114.305 62.3298 114.48 62.0696C114.655 61.8094 114.765 61.5112 114.801 61.1999C114.777 60.6719 114.301 60.5279 113.725 60.8599Z" fill="#7C8A8F"/>
<path id="Vector_83" d="M114.021 66.3198L100.149 74.3198C99.8743 74.4674 99.6417 74.6819 99.4724 74.9435C99.3032 75.205 99.2028 75.5051 99.1807 75.8158C99.2247 76.3078 99.7287 76.4398 100.301 76.1078L114.177 68.1078C114.45 67.9609 114.681 67.7468 114.848 67.4857C115.015 67.2247 115.113 66.9253 115.133 66.6158C115.093 66.1198 114.597 65.9998 114.021 66.3198Z" fill="#7C8A8F"/>
<path id="Vector_84" d="M114.577 71.6277L100.701 79.6277C100.129 79.9597 99.7127 80.6197 99.7807 81.0957C99.8487 81.5717 100.373 81.6957 100.949 81.3637L114.825 73.3637C115.397 73.0317 115.805 72.3757 115.733 71.8997C115.661 71.4237 115.149 71.2957 114.577 71.6277Z" fill="#7C8A8F"/>
<path id="Vector_85" d="M115.409 76.7757L101.533 84.7757C100.961 85.1077 100.565 85.7557 100.661 86.2197C100.757 86.6837 101.301 86.7877 101.861 86.4557L115.733 78.4557C116.309 78.1237 116.693 77.4797 116.597 77.0157C116.501 76.5517 116.001 76.4437 115.409 76.7757Z" fill="#7C8A8F"/>
<path id="Vector_86" d="M116.536 81.7515L102.66 89.7515C102.088 90.0835 101.716 90.7155 101.86 91.1595C102.004 91.6035 102.552 91.7035 103.124 91.3715L117 83.3715C117.576 83.0395 117.936 82.4115 117.8 81.9635C117.664 81.5155 117.108 81.4195 116.536 81.7515Z" fill="#7C8A8F"/>
<path id="Vector_87" d="M118 86.5476L84.1844 106.072C83.6124 106.404 83.2644 107.02 83.4204 107.448C83.5764 107.876 84.1724 107.956 84.7444 107.624L118.56 88.0996C119.136 87.7676 119.468 87.1556 119.312 86.7236C119.156 86.2916 118.552 86.2156 118 86.5476Z" fill="#7C8A8F"/>
<path id="Vector_88" d="M119.78 91.1276L85.9684 110.652C85.3924 110.984 85.0764 111.584 85.2684 111.992C85.4604 112.4 86.0684 112.464 86.6524 112.132L120.468 92.6076C121.044 92.2756 121.352 91.6756 121.16 91.2676C120.968 90.8596 120.356 90.7996 119.78 91.1276Z" fill="#7C8A8F"/>
<path id="Vector_89" d="M122 95.492L88.1844 115.016C87.6084 115.348 87.3244 115.932 87.5524 116.32C87.7804 116.708 88.4324 116.748 89.0084 116.416L122.8 96.892C123.372 96.564 123.648 95.984 123.42 95.596C123.192 95.208 122.56 95.16 122 95.492Z" fill="#7C8A8F"/>
<path id="Vector_90" d="M124.588 99.6198L90.7764 119.14C90.2004 119.472 89.9444 120.044 90.2044 120.408C90.4644 120.772 91.1484 120.808 91.7244 120.472L125.536 100.948C126.112 100.616 126.36 100.052 126.1 99.6838C125.84 99.3158 125.164 99.2878 124.588 99.6198Z" fill="#7C8A8F"/>
<path id="Vector_91" d="M127.54 103.544L93.7245 123.064C93.1525 123.396 92.9245 123.952 93.2125 124.3C93.5005 124.648 94.2085 124.664 94.7845 124.332L128.6 104.8C129.172 104.468 129.4 103.92 129.104 103.572C128.808 103.224 128.116 103.2 127.54 103.544Z" fill="#7C8A8F"/>
<path id="Vector_92" d="M130.8 107.28L96.9963 126.8C96.4203 127.132 96.1963 127.676 96.5323 128C96.8683 128.324 97.5804 128.332 98.1524 128L131.968 108.476C132.544 108.144 132.744 107.608 132.424 107.276C132.104 106.944 131.384 106.952 130.8 107.28Z" fill="#7C8A8F"/>
<path id="Vector_93" d="M134.401 110.852L100.585 130.372C100.013 130.704 99.8246 131.236 100.185 131.552C100.545 131.868 101.281 131.856 101.857 131.524L135.645 112C136.217 111.668 136.397 111.148 136.045 110.828C135.693 110.508 134.961 110.52 134.401 110.852Z" fill="#7C8A8F"/>
<path id="Vector_94" d="M94.8241 71.7759L78.8721 80.9759C79.0481 86.7559 79.7081 95.0919 82.1241 103.488L98.0801 94.2879C95.6601 85.8919 95.0001 77.5519 94.8241 71.7759Z" fill="#008080"/>
<path id="Vector_95" opacity="0.8" d="M94.8241 71.7759L78.8721 80.9759C79.0481 86.7559 79.7081 95.0919 82.1241 103.488L98.0801 94.2879C95.6601 85.8919 95.0001 77.5519 94.8241 71.7759Z" fill="#7C8A8F"/>
<path id="Vector_96" d="M85.3761 79.7037C85.3976 79.3306 85.3395 78.9572 85.2057 78.6082C85.072 78.2593 84.8655 77.9428 84.6001 77.6797L78.8721 80.9837C78.9201 82.5117 79.0001 84.2197 79.1401 86.0597C79.8852 86.1454 80.6389 86.0061 81.3041 85.6597C83.5561 84.6277 85.3761 81.9517 85.3761 79.7037Z" fill="#008080"/>
<path id="Vector_97" opacity="0.6" d="M85.3761 79.7037C85.3976 79.3306 85.3395 78.9572 85.2057 78.6082C85.072 78.2593 84.8655 77.9428 84.6001 77.6797L78.8721 80.9837C78.9201 82.5117 79.0001 84.2197 79.1401 86.0597C79.8852 86.1454 80.6389 86.0061 81.3041 85.6597C83.5561 84.6277 85.3761 81.9517 85.3761 79.7037Z" fill="white"/>
<path id="Vector_98" d="M96.7244 88.7676C95.6604 87.4276 93.4964 83.2876 92.5724 81.4836C92.5361 81.4123 92.4793 81.3535 92.4092 81.3149C92.3391 81.2762 92.2591 81.2595 92.1794 81.2668C92.0997 81.2741 92.024 81.3052 91.9622 81.356C91.9003 81.4067 91.8551 81.4749 91.8324 81.5516C90.8328 84.9686 90.2525 88.4945 90.1044 92.0516C88.7722 90.994 87.627 89.7203 86.7164 88.2836C86.6776 88.228 86.6237 88.1846 86.561 88.1585C86.4983 88.1325 86.4295 88.1249 86.3627 88.1367C86.2959 88.1484 86.2338 88.1791 86.1838 88.2249C86.1338 88.2708 86.0979 88.33 86.0804 88.3956C84.3364 95.1116 85.2124 101.72 85.2124 101.72L98.0804 94.2876C97.5444 92.4316 97.1004 90.5836 96.7244 88.7676Z" fill="#008080"/>
<path id="Vector_99" opacity="0.6" d="M96.7244 88.7676C95.6604 87.4276 93.4964 83.2876 92.5724 81.4836C92.5361 81.4123 92.4793 81.3535 92.4092 81.3149C92.3391 81.2762 92.2591 81.2595 92.1794 81.2668C92.0997 81.2741 92.024 81.3052 91.9622 81.356C91.9003 81.4067 91.8551 81.4749 91.8324 81.5516C90.8328 84.9686 90.2525 88.4945 90.1044 92.0516C88.7722 90.994 87.627 89.7203 86.7164 88.2836C86.6776 88.228 86.6237 88.1846 86.561 88.1585C86.4983 88.1325 86.4295 88.1249 86.3627 88.1367C86.2959 88.1484 86.2338 88.1791 86.1838 88.2249C86.1338 88.2708 86.0979 88.33 86.0804 88.3956C84.3364 95.1116 85.2124 101.72 85.2124 101.72L98.0804 94.2876C97.5444 92.4316 97.1004 90.5836 96.7244 88.7676Z" fill="white"/>
</g>
</g>
<defs>
<clipPath id="clip0_916_8032">
<rect width="162" height="138" fill="white"/>
</clipPath>
</defs>
</svg>
